<?xml version="1.0" encoding="UTF-8" standalone="no"?>
<svg
   xmlns:dc="http://purl.org/dc/elements/1.1/"
   xmlns:cc="http://creativecommons.org/ns#"
   xmlns:rdf="http://www.w3.org/1999/02/22-rdf-syntax-ns#"
   xmlns:svg="http://www.w3.org/2000/svg"
   xmlns="http://www.w3.org/2000/svg"
   xmlns:sodipodi="http://sodipodi.sourceforge.net/DTD/sodipodi-0.dtd"
   xmlns:inkscape="http://www.inkscape.org/namespaces/inkscape"
   viewBox="0 0 133.33333 124.73866"
   width="800"
   height="748.43201"
   id="svg2"
   version="1.1"
   inkscape:version="0.91 r13725"
   sodipodi:docname="BanvanTree.svg">
  <metadata
     id="metadata40">
    <rdf:RDF>
      <cc:Work
         rdf:about="">
        <dc:format>image/svg+xml</dc:format>
        <dc:type
           rdf:resource="http://purl.org/dc/dcmitype/StillImage" />
        <dc:title></dc:title>
      </cc:Work>
    </rdf:RDF>
  </metadata>
  <defs
     id="defs38" />
  <sodipodi:namedview
     pagecolor="#ffffff"
     bordercolor="#666666"
     borderopacity="1"
     objecttolerance="10"
     gridtolerance="10"
     guidetolerance="10"
     inkscape:pageopacity="0"
     inkscape:pageshadow="2"
     inkscape:window-width="1600"
     inkscape:window-height="837"
     id="namedview36"
     showgrid="false"
     fit-margin-top="0"
     fit-margin-left="0"
     fit-margin-right="0"
     fit-margin-bottom="0"
     inkscape:zoom="0.8952049"
     inkscape:cx="400"
     inkscape:cy="374.216"
     inkscape:window-x="-8"
     inkscape:window-y="-8"
     inkscape:window-maximized="1"
     inkscape:current-layer="svg2" />
  <g
     id="g1838"
     transform="matrix(1.750057,0,0,1.750057,-541.96529,-443.23709)">
    <path
       style="fill:#4d4d4d"
       inkscape:connector-curvature="0"
       d="m 356.575,303.198 c -0.664,1.106 -0.239,-1.712 -0.239,-2.599 0,-0.887 -1.772,-2.88 -2.217,-3.766 -0.442,-0.887 -2.923,-1.168 -3.588,0.161 -0.664,1.329 -1.953,1.369 -1.953,1.369 l -0.846,-1.812 c 0,0 -2.198,0.182 -2.64,1.733 -0.444,1.55 -1.249,2.095 -1.249,2.095 l -2.093,-2.17 c -0.022,0.506 -0.068,1.171 0.005,1.817 0.214,1.856 -0.411,5.819 -0.411,7.265 0,1.455 -1.039,5.192 -1.887,6.853 -0.822,1.657 -1.443,3.546 -2.066,4.363 -0.615,0.843 -3.742,2.294 -6.641,2.901 -2.906,0.631 -2.299,2.092 -2.299,2.092 0,0 5.419,1.047 7.699,1.047 2.266,0 19.115,-0.633 19.115,-0.633 l 19.726,0 c 1.658,0 1.243,-0.209 1.454,-1.875 0.204,-1.656 -4.982,-0.197 -5.805,-0.197 -0.846,0 -4.374,-1.658 -6.255,-2.09 -1.852,-0.402 -4.982,-3.732 -5.388,-5.408 -0.431,-1.654 0,-8.498 0.621,-10.996 0.225,-0.895 0.34,-1.623 0.395,-2.199 -0.266,-2.248 -1.609,-4.215 -1.609,-4.215 0,0 -1.165,5.155 -1.829,6.264 l 0,0 z"
       id="path3233_1_" />
    <path
       style="fill:#999999"
       inkscape:connector-curvature="0"
       d="m 352.975,299.598 c 1.376,1.115 0.828,2.705 0.828,3.752 0,1.043 -1.87,1.871 -3.324,1.455 -1.455,-0.412 -2.283,-1.867 -1.665,-2.719 0.64,-0.813 3.119,-3.302 4.161,-2.488 z"
       id="path3239_1_" />
    <path
       style="fill:#999999"
       inkscape:connector-curvature="0"
       d="m 353.185,307.908 c 0.675,1.064 0.219,7.069 0.219,7.682 0,0.632 -3.125,1.058 -3.54,0 -0.401,-1.028 -0.621,-2.264 -0.401,-3.312 0.196,-1.053 0.401,-1.445 0.401,-2.905 0,-1.465 1.441,-4.374 3.321,-1.465 z"
       id="path3243_1_" />
    <path
       style="fill:#999999"
       inkscape:connector-curvature="0"
       d="m 347.585,311.868 c 0.497,0.418 1.236,2.475 0.832,3.112 -0.414,0.612 -2.503,2.909 -3.756,1.038 -1.232,-1.876 1.665,-5.192 2.924,-4.15 z"
       id="path3247_1_" />
    <path
       style="fill:#0f6937"
       inkscape:connector-curvature="0"
       d="m 385.795,283.028 c 0,-2.293 -1.024,-4.154 -1.875,-6.656 -0.823,-2.499 -2.692,-4.772 -4.362,-7.48 -1.67,-2.7 -4.149,-4.571 -5.813,-6.231 -1.676,-1.651 -2.916,-2.703 -7.28,-5.824 -4.349,-3.11 -18.888,-3.518 -18.888,-3.518 -3.325,-0.426 -9.969,2.059 -10.589,2.479 -0.642,0.421 -4.993,0.832 -5.823,1.039 -0.836,0.201 -2.905,3.121 -5.204,4.173 -2.28,1.033 -3.535,2.264 -4.147,3.311 -0.627,1.034 -2.91,2.298 -2.91,2.298 0,0 -2.086,3.307 -3.336,4.981 -1.23,1.646 -2.479,4.145 -2.479,6.638 0,2.497 -0.418,5.809 -0.418,5.809 0,0 -1.864,3.948 -2.702,5.403 -0.838,1.45 0.421,3.55 0.627,4.986 0.211,1.473 1.245,1.88 2.283,4.583 1.038,2.689 1.038,7.681 1.038,7.681 0,0 0.42,-0.827 0.633,-1.454 0.2,-0.617 0.822,-3.948 1.233,-6.437 0.435,-2.493 0.435,-3.751 2.483,-4.373 2.081,-0.618 1.268,1.88 1.676,3.541 0.405,1.646 2.061,9.962 2.483,9.341 0.415,-0.618 0.415,-2.287 1.032,-4.145 0.638,-1.881 0.223,-3.551 0.223,-5.614 0,-2.082 2.065,-3.742 2.698,-4.56 0.626,-0.838 1.463,1.436 1.67,3.316 0.211,1.857 0.211,2.915 0.61,6.012 0.419,3.123 2.288,4.579 2.506,3.965 0.215,-0.641 0,-3.119 -0.218,-6.239 -0.199,-3.125 1.245,-3.331 1.677,-3.953 0.405,-0.623 2.268,1.034 2.268,1.034 0,0 0.2,5.193 -0.205,6.857 -0.418,1.66 1.462,1.66 2.922,-0.205 1.353,-1.749 1.073,-2.932 2.546,-4.944 0.107,-0.148 0.223,-0.299 0.351,-0.455 1.225,-1.502 1.282,-1.12 1.243,-0.152 l 2.093,2.855 c 0,0 1.107,-1.108 1.552,-2.659 0.441,-1.551 2.215,-1.551 2.215,-1.551 l 0.664,1.994 c 0,0 1.773,-0.222 2.438,-1.551 0.665,-1.329 2.66,-1.108 3.103,-0.222 0.444,0.886 2.217,2.879 2.217,3.766 0,0.887 0,3.767 0.664,2.66 0.664,-1.109 1.771,-6.205 1.771,-6.205 0,0 1.274,1.638 1.54,3.886 0.104,-1.028 0.029,-1.588 0.029,-1.588 l 1.448,6.67 c 0,0 0.636,-1.262 1.052,-2.506 0.408,-1.26 -0.416,-4.556 -0.416,-4.556 0,0 2.268,-1.058 2.689,0.206 0.436,1.24 0.204,5.809 0.436,6.856 0.206,1.025 0.608,-0.42 1.023,-1.047 0.417,-0.617 0.417,-4.154 0.417,-5.407 0,-1.24 1.659,-2.063 1.659,-2.063 0,0 0.839,2.698 0.839,3.732 0,1.035 1.249,4.785 1.249,7.055 0,2.302 0.632,1.455 1.032,-0.191 0.402,-1.671 0,-4.785 0,-6.26 0,-1.435 0.192,-3.938 0.608,-5.388 0.436,-1.449 1.676,-1.665 2.298,-1.665 0.622,0 0.622,1.458 0.826,2.919 0.215,1.46 1.663,7.054 1.663,7.896 0,0.827 0.422,-1.666 0.422,-2.91 0,-1.254 0.214,-4.574 0.413,-7.283 0.196,-2.68 2.495,-1.862 2.699,-1.244 0.217,0.636 0.622,5.618 0.622,8.527 0,2.899 0.637,6.637 0.637,6.637 0,0 0.607,-1.037 0.607,-2.281 0,-1.254 1.05,-4.775 1.466,-6.844 0.396,-2.085 0.396,-5.416 1.449,-8.738 1.024,-3.323 0.623,-6.433 0.623,-8.707 l 0,0 z"
       id="path3229_1_" />
    <path
       style="fill:#149140"
       inkscape:connector-curvature="0"
       d="m 377.895,278.208 c -1.775,1.42 -0.609,5.182 1.06,5.394 1.66,0.219 3.741,-0.604 3.31,-2.269 -0.406,-1.666 -2.281,-4.78 -4.37,-3.125 z"
       id="path3253_1_" />
    <path
       style="fill:#149140"
       inkscape:connector-curvature="0"
       d="m 375.415,281.338 c 1.926,1.928 0.404,3.312 -0.215,4.149 -0.621,0.809 -0.204,1.034 -2.08,1.034 -1.865,0 -0.819,-0.417 -3.124,-0.617 -2.28,-0.21 -1.04,-1.235 -2.28,-0.21 -1.244,1.038 -2.699,1.244 -2.699,-0.207 0,-1.464 0,-3.527 0.637,-4.149 0.618,-0.627 1.454,-0.833 2.279,-1.043 0.851,-0.22 2.503,0.416 3.135,0.416 0.592,0 3.104,-0.626 4.347,0.627 l 0,0 z"
       id="path3257_1_" />
    <path
       style="fill:#149140"
       inkscape:connector-curvature="0"
       d="m 368.535,277.998 c -0.88,-0.517 -1.211,-1.659 -2.067,-1.866 -0.818,-0.21 -1.853,-0.622 -2.689,0 -0.835,0.622 -0.415,0.622 -1.659,0.824 -1.249,0.211 -2.499,-0.202 -3.323,0.211 -0.836,0.411 -1.04,-0.413 -1.258,1.454 -0.201,1.875 -1.658,3.33 -0.816,5.393 0.816,2.082 1.257,2.293 -0.421,3.537 -1.648,1.253 -1.858,1.656 -3.528,1.656 -1.654,0 -1.886,-0.823 -3.315,-0.613 -1.459,0.21 -3.758,-1.646 -3.34,0.824 0.421,2.488 -2.499,1.866 -2.499,1.866 0,0 -2.904,-0.617 -2.904,-1.866 0,-1.239 -0.624,-3.13 -0.624,-3.13 0,0 -1.865,-2.067 -3.335,-0.192 -1.438,1.866 0.236,4.168 -2.065,3.953 -2.278,-0.21 -7.074,-0.631 -6.638,-2.497 0.4,-1.866 0.61,-3.111 1.854,-3.953 1.262,-0.823 2.289,-2.269 3.743,-3.312 1.445,-1.043 2.298,-2.082 1.445,-3.331 -0.823,-1.244 -1.445,-1.666 -2.285,-2.078 -0.812,-0.42 -2.677,-2.292 -3.938,-0.827 -1.256,1.459 -1.46,1.661 -2.7,1.871 -1.254,0.21 -4.165,-0.828 -4.165,0.833 0,1.651 -0.189,3.12 1.882,3.12 2.076,0 3.957,-0.631 3.957,0 0,0.622 -1.463,2.695 -2.096,3.724 -0.617,1.042 0,3.761 -1.65,3.761 -1.67,0 -1.465,-1.052 -3.748,0 -2.273,1.024 -3.728,1.848 -4.564,2.479 -0.822,0.622 -4.363,-0.201 -2.499,-2.287 1.892,-2.073 2.919,-3.537 2.699,-4.776 -0.2,-1.235 -0.2,-3.111 -0.2,-3.111 0,0 0.194,-2.287 1.239,-3.952 1.052,-1.661 1.676,-2.91 2.296,-3.743 0.624,-0.833 1.868,-1.866 3.522,-3.939 1.675,-2.081 3.538,-4.79 3.538,-4.79 0,0 3.12,-1.029 3.95,-0.192 0.836,0.814 1.863,1.028 1.029,2.067 -0.818,1.043 -3.746,0.416 -2.49,1.871 1.262,1.459 2.692,1.872 3.54,1.459 0.831,-0.417 2.483,-1.861 3.938,-1.861 1.46,0 2.712,0.798 3.108,-0.636 0.421,-1.455 0.211,-2.489 -1.233,-2.284 -1.47,0.197 -2.499,-0.215 -3.535,-0.425 -1.04,-0.192 -3.521,-0.21 -1.88,-1.646 1.678,-1.455 1.678,-1.455 4.182,-2.288 2.467,-0.846 3.314,-1.866 4.765,-1.866 1.47,0 3.743,0.191 5.6,0.191 1.882,0 3.944,0.627 6.251,0.431 2.273,-0.22 4.56,-0.622 5.798,-0.622 1.259,0 4.982,1.02 4.164,1.866 -0.836,0.833 -0.415,2.704 -2.281,2.905 -1.883,0.187 -4.162,0.416 -5.831,0.626 -1.65,0.21 -3.114,0.613 -3.114,0.613 0,0 0.203,1.044 -0.615,1.871 -0.84,0.837 -0.84,0.627 -3.112,1.047 -2.293,0.407 -3.736,0.407 -3.537,1.235 0.201,0.842 3.739,1.871 3.739,1.871 0,0 0.421,1.661 0.421,2.292 0,0.618 1.46,1.235 -1.239,2.072 -2.72,0.828 -3.12,0.21 -3.539,1.24 -0.42,1.052 -1.881,3.125 -2.703,3.326 -0.827,0.215 -1.248,2.713 0,3.134 1.241,0.411 2.499,0 3.122,0 0.621,0 6.009,1.03 6.425,0.411 0.424,-0.622 -1.649,-0.622 -1.649,-3.11 0,-2.501 0,-3.344 1.233,-3.963 1.254,-0.621 2.073,-1.875 3.521,-1.875 1.472,0 2.508,0.21 3.954,0 1.463,-0.202 2.925,-0.202 5.206,-0.824 2.284,-0.612 5.614,-0.827 3.33,-1.665 -2.283,-0.824 -3.345,-0.421 -5.829,0 -2.501,0.425 -3.732,0.837 -5.613,0.224 -1.85,-0.636 -2.496,-1.263 -2.276,-1.88 0.219,-0.619 -1.039,-2.49 0,-3.121 1.037,-0.623 0.822,-1.853 2.9,-1.244 2.086,0.621 5.207,1.037 5.207,1.037 0,0 2.491,-0.21 4.362,-0.21 1.875,0 3.113,0.627 3.733,-0.206 0.609,-0.828 0.413,-3.522 1.681,-2.718 1.233,0.842 1.444,1.062 2.263,2.924 0.843,1.871 2.085,3.325 2.085,3.947 0,0.623 -1.881,3.117 -2.295,3.734 -0.416,0.636 -1.25,0 -0.206,1.875 1.052,1.876 2.286,2.073 1.46,2.7 -0.844,0.63 -4.382,1.266 -5.839,0.424 l 0,0 z"
       id="path3261_1_" />
  </g>
</svg>
