<?xml version="1.0" encoding="UTF-8" standalone="no"?>
<!-- Generator: Adobe Illustrator 16.0.0, SVG Export Plug-In . SVG Version: 6.00 Build 0)  -->

<svg
   xmlns:dc="http://purl.org/dc/elements/1.1/"
   xmlns:cc="http://creativecommons.org/ns#"
   xmlns:rdf="http://www.w3.org/1999/02/22-rdf-syntax-ns#"
   xmlns:svg="http://www.w3.org/2000/svg"
   xmlns="http://www.w3.org/2000/svg"
   xmlns:sodipodi="http://sodipodi.sourceforge.net/DTD/sodipodi-0.dtd"
   xmlns:inkscape="http://www.inkscape.org/namespaces/inkscape"
   version="1.1"
   id="Capa_1"
   x="0px"
   y="0px"
   width="187.21px"
   height="187.21px"
   viewBox="0 0 187.21 187.21"
   style="enable-background:new 0 0 187.21 187.21;"
   xml:space="preserve"
   sodipodi:docname="tree-svgrepo-com.svg"
   inkscape:version="0.92.4 (5da689c313, 2019-01-14)"><metadata
   id="metadata41"><rdf:RDF><cc:Work
       rdf:about=""><dc:format>image/svg+xml</dc:format><dc:type
         rdf:resource="http://purl.org/dc/dcmitype/StillImage" /><dc:title></dc:title></cc:Work></rdf:RDF></metadata><defs
   id="defs39" /><sodipodi:namedview
   pagecolor="#ffffff"
   bordercolor="#666666"
   borderopacity="1"
   objecttolerance="10"
   gridtolerance="10"
   guidetolerance="10"
   inkscape:pageopacity="0"
   inkscape:pageshadow="2"
   inkscape:window-width="1920"
   inkscape:window-height="1018"
   id="namedview37"
   showgrid="false"
   inkscape:zoom="3.5655615"
   inkscape:cx="111.16104"
   inkscape:cy="90.366491"
   inkscape:window-x="-8"
   inkscape:window-y="-8"
   inkscape:window-maximized="1"
   inkscape:current-layer="Capa_1" />

<g
   id="g6">
</g>
<g
   id="g8">
</g>
<g
   id="g10">
</g>
<g
   id="g12">
</g>
<g
   id="g14">
</g>
<g
   id="g16">
</g>
<g
   id="g18">
</g>
<g
   id="g20">
</g>
<g
   id="g22">
</g>
<g
   id="g24">
</g>
<g
   id="g26">
</g>
<g
   id="g28">
</g>
<g
   id="g30">
</g>
<g
   id="g32">
</g>
<g
   id="g34">
</g>
<g
   id="g4">
	<path
   d="m 159.201,74.952 c -2.015,-5.572 -6.036,-10.57 -11.563,-13.55 -0.346,-0.225 -0.695,-0.442 -1.051,-0.654 C 162.809,47.482 149.661,20.91 128.536,25.111 127.559,18.593 124.234,13.542 119.558,9.853 109.68,-1.379 89.134,-3.155 76.861,5.283 69.909,8.265 65.083,13.23 64.87,19.902 c -5.679,-0.941 -12.214,1.701 -16.236,5.4 -5.745,5.283 -7.678,13.535 -5.595,20.798 -2.687,0.547 -4.919,1.835 -6.683,3.714 -8.023,4.782 -11.622,16.339 -10.237,25.796 1.434,9.794 10.117,24.974 21.337,21.908 -8.314,7.029 0.463,17.164 11.123,25.083 0.944,0.731 1.932,1.438 2.963,2.115 6.508,4.473 13.152,7.971 16.622,9.33 4.066,1.592 8.261,2.701 12.481,3.37 -0.658,7.9 -1.67,15.589 -3.023,23.541 -1.528,8.978 -1.033,19.391 7.436,25.02 9.001,5.983 13.567,-11.487 14.511,-16.503 1.232,-6.556 1.056,-12.919 0.313,-19.539 -0.389,-3.476 -0.437,-8.422 -1.562,-12.378 11.407,-1.668 21.881,-6.782 29.19,-15.149 6.507,-5.174 10.952,-11.666 11.308,-19.262 12.895,-6.007 14.875,-17.927 10.383,-28.194 z"
   id="path894"
   style="fill:#dae6f2;fill-opacity:1;stroke:#263940;stroke-opacity:1;stroke-width:1;stroke-miterlimit:4;stroke-dasharray:none" /><path
   d="m 139.705,99.639 c -0.791,6.163 -3.016,11.391 -6.228,15.714 -9.952,8.924 -23.779,13.779 -37.675,14.48 -1.48,0.074 -3.171,0.02 -5.004,-0.154 -1.445,-0.257 -2.881,-0.575 -4.299,-0.955 -8.615,-2.31 -28.036,-10.35 -32.786,-20.525 -0.56,-3.736 0.751,-7.854 4.781,-12.279 1.713,-1.881 0.007,-4.485 -2.364,-4.06 C 44.565,93.93 39.126,81.343 37.073,72.191 35.487,65.119 36.63,59.311 40.279,54.827 c 2.157,-1.097 4.64,-1.723 7.224,-2.471 1.073,-0.311 1.676,-1.408 1.687,-2.454 0.76,-0.22 1.379,-0.935 1.042,-1.802 -1.397,-3.59 -1.695,-7.626 -0.959,-11.226 0.74,-2.129 1.883,-4.151 3.449,-5.99 1.778,-2.088 4.073,-3.444 6.669,-4.189 2.515,-0.199 5.44,0.359 8.812,2.048 0.467,0.234 0.983,0.288 1.473,0.217 2.742,0.607 4.006,-2.996 2.438,-4.929 -0.126,-0.155 -0.267,-0.278 -0.398,-0.424 0.33,-3.572 1.43,-6.588 3.096,-9.099 5.234,-4.101 14.147,-5.288 20.021,-5.216 12.549,0.153 22.39,6.008 25.967,17.351 0.062,0.24 0.131,0.473 0.188,0.716 0.019,0.079 0.073,0.116 0.098,0.187 0.095,0.341 0.171,0.697 0.255,1.047 -0.171,0.627 -0.01,1.301 0.415,1.766 0.617,2.876 3.973,3.054 5.814,1.458 14.918,-0.112 29.647,18.194 10.279,25.964 -3.173,1.272 -3.692,5.892 0,6.966 14.568,4.24 22.527,21.724 9.405,30.739 -0.506,-0.101 -1.078,0.128 -1.263,0.713 -0.005,0.016 -0.012,0.03 -0.017,0.046 -0.042,0.024 -0.088,0.049 -0.131,0.073 -2.172,-1.048 -5.72,0.066 -6.138,3.321 z"
   id="path2"
   style="fill:#263940;fill-opacity:1;stroke:#8d95a6;stroke-opacity:1" />
</g></svg>